<?xml version="1.0" standalone="no"?>
<!DOCTYPE svg PUBLIC "-//W3C//DTD SVG 20010904//EN"
 "http://www.w3.org/TR/2001/REC-SVG-20010904/DTD/svg10.dtd">
<svg version="1.0" xmlns="http://www.w3.org/2000/svg"
 width="267.000000pt" height="300.000000pt" viewBox="0 0 267.000000 300.000000"
 preserveAspectRatio="xMidYMid meet">

<g transform="translate(0.000000,300.000000) scale(0.100000,-0.100000)"
fill="#000000" stroke="none">
<path d="M2415 2129 c-116 -66 -212 -124 -215 -128 -6 -9 -427 -251 -436 -251
-19 0 -844 -485 -844 -496 0 -25 85 -118 148 -161 93 -63 180 -87 301 -80 114
6 181 29 263 90 55 41 128 120 128 138 0 5 4 9 10 9 15 0 430 -242 430 -250 0
-15 -94 -136 -149 -193 -115 -119 -270 -212 -438 -264 -80 -24 -103 -27 -263
-27 -190 -1 -225 5 -384 66 -158 61 -345 213 -443 361 l-45 68 -63 -36 c-215
-120 -370 -215 -373 -228 -2 -8 16 -31 40 -52 36 -31 689 -414 1067 -626 115
-65 168 -78 243 -61 57 14 1144 636 1196 686 19 17 43 49 55 71 22 40 22 42
22 730 0 562 -3 696 -14 723 -7 17 -16 32 -20 32 -3 0 -101 -54 -216 -121z
m-307 -411 l3 -68 69 0 70 0 0 70 0 70 35 0 35 0 0 -70 0 -70 70 0 70 0 0 -40
0 -40 -70 0 -71 0 3 -67 3 -68 68 -3 67 -3 0 -34 0 -35 -70 0 -70 0 0 -70 0
-70 -35 0 -35 0 0 70 0 70 -70 0 -70 0 0 -70 0 -70 -35 0 -35 0 0 70 0 70 -70
0 -70 0 0 35 0 34 68 3 67 3 3 68 3 67 -71 0 -70 0 0 40 0 40 70 0 70 0 0 71
0 70 33 -3 32 -3 3 -67z"/>
<path d="M2110 1500 l0 -71 68 3 67 3 3 68 3 67 -71 0 -70 0 0 -70z"/>
</g>
</svg>
